<svg width="16" height="16" viewBox="0 0 16 16" fill="none" xmlns="http://www.w3.org/2000/svg">
<rect width="16" height="16" fill="black"/>
<path d="M12.4994 10.2492L12.2949 10.1195L12.4994 10.0762V10.1803V10.2492Z" fill="white"/>
<path d="M8.21191 3.60492L8.10427 3.65738L7.99609 3.5L8.08187 3.5417L8.21191 3.60492Z" fill="white"/>
<path d="M8.72906 3.8562L8.36192 4.0342L8.29744 3.94004L8.23242 3.84543L8.39655 3.76562L8.48981 3.84633L8.59958 3.79297L8.72906 3.8562Z" fill="white"/>
<path d="M9.24832 4.10867L8.62167 4.41311L8.49219 4.22435L8.76874 4.08984L8.86198 4.17055L9.11829 4.0459L9.24832 4.10867Z" fill="white"/>
<path d="M9.76565 4.36062L8.88003 4.79106L8.81502 4.6969L8.75 4.6023L9.14006 4.41263L9.23279 4.49379L9.63617 4.29785L9.76565 4.36062Z" fill="white"/>
<path d="M10.2869 4.6116L9.14173 5.16803L9.01172 4.97926L9.51421 4.7349L9.60747 4.81561L10.1569 4.54883L10.2869 4.6116Z" fill="white"/>
<path d="M10.8627 4.94308L9.36466 5.57707L9.22656 5.4017L9.88241 5.12386L9.98185 5.19884L10.7246 4.88477L10.8627 4.94308Z" fill="white"/>
<path d="M11.2704 5.11997L9.56257 5.923L9.42969 5.73505L10.1767 5.38408L10.2718 5.46425L11.137 5.05762L11.2704 5.11997Z" fill="white"/>
<path d="M11.8851 5.46967L9.96936 6.44276L9.83984 6.24572L10.6775 5.82081L10.7704 5.90485L11.7561 5.4043L11.8851 5.46967Z" fill="white"/>
<path d="M12.2947 5.64389L10.1714 6.78771L10.0449 6.58362L10.9728 6.084L11.063 6.17106L12.1682 5.57617L12.2947 5.64389Z" fill="white"/>
<path d="M12.4997 6.05974L10.3835 7.13537L10.25 6.93127L11.3491 6.37266L11.4446 6.45972L12.4997 5.92383V6.05974Z" fill="white"/>
<path d="M12.4989 6.57313L10.7821 7.48084L10.6582 7.2838L11.7864 6.68752L11.8756 6.77156L12.4989 6.44238V6.57313Z" fill="white"/>
<path d="M12.4995 7.11103L10.9911 7.9994L10.8633 7.77396L12.1332 7.02663L12.2249 7.12279L12.4995 6.96094V7.11103Z" fill="white"/>
<path d="M12.4981 7.73065L11.1989 8.34585L11.0664 8.158L12.4981 7.48047V7.60557V7.73065Z" fill="white"/>
<path d="M12.4986 8.2341L11.4102 8.69231L11.2715 8.51694L12.4986 8V8.11704V8.2341Z" fill="white"/>
<path d="M12.4978 8.80127L11.7993 9.21184L11.7392 9.10657L11.6797 9.00079L12.4978 8.51953V8.66041V8.80127Z" fill="white"/>
<path d="M12.5003 9.30434L12.014 9.55829L11.8867 9.35957L12.5003 9.03906V9.17171V9.30434Z" fill="white"/>
<path d="M12.4989 9.79515L12.2347 9.90377L12.1623 9.81502L12.0898 9.72584L12.4989 9.55762V9.67639V9.79515Z" fill="white"/>
<path d="M3.5 10.2507V10.25H3.70452V10.4231L3.5815 10.3195L3.5 10.2507Z" fill="white"/>
<path d="M12.2949 10.4231V10.25H12.4994L12.418 10.3188L12.2949 10.4231Z" fill="white"/>
<path d="M11.6797 10.5962V10.25H11.8846H12.0887V10.4048L11.8846 10.4313V10.5348L11.6797 10.5962Z" fill="white"/>
<path d="M11.2715 10.9423V10.25H11.476V10.5559L11.3735 10.5875V10.8704L11.2715 10.9423Z" fill="white"/>
<path d="M10.6582 11.1154V10.25H10.8627H11.0672V10.6309L10.8627 10.6584V11.0518L10.6582 11.1154Z" fill="white"/>
<path d="M10.25 11.4615V10.25H10.4545V10.7816L10.3525 10.8113V11.3927L10.25 11.4615Z" fill="white"/>
<path d="M9.63672 11.6346V10.25H9.84124V10.8568L9.73878 10.8845V11.5709L9.63672 11.6346Z" fill="white"/>
<path d="M9.22656 11.9808V10.25H9.43108V11.0071L9.32882 11.0364V11.9136L9.22656 11.9808Z" fill="white"/>
<path d="M8.61328 12.1538V10.25H8.8178V11.082L8.71575 11.1099V12.0899L8.61328 12.1538Z" fill="white"/>
<path d="M8.20312 12.5V10.25H8.40765V11.233L8.30539 11.262V12.4334L8.20312 12.5Z" fill="white"/>
<path d="M7.58984 12.4314V10.25H7.79437V11.3829L7.6921 11.4128V12.5L7.58984 12.4314Z" fill="white"/>
<path d="M7.18164 12.0872V10.25H7.38616V11.4579L7.28369 11.4868V12.1538L7.18164 12.0872Z" fill="white"/>
<path d="M6.56836 11.9103V10.25H6.77288V11.6481L6.67063 11.6786V11.9808L6.56836 11.9103Z" fill="white"/>
<path d="M5.95312 11.5067V10.25H6.36217V11.6346L6.15807 11.5709L5.95312 11.5067Z" fill="white"/>
<path d="M5.54688 11.3244V10.25H5.7514V11.4615L5.64893 11.3927L5.54688 11.3244Z" fill="white"/>
<path d="M4.93164 10.9887V10.25H5.13616H5.34068V11.1154L5.13616 11.0518L4.93164 10.9887Z" fill="white"/>
<path d="M4.52148 10.7991V10.25H4.72601V10.9423L4.62395 10.8704L4.52148 10.7991Z" fill="white"/>
<path d="M3.9082 10.474V10.25H4.1123H4.31725V10.5962L4.1123 10.5348L3.9082 10.474Z" fill="white"/>
<path d="M3.5 10.2492L3.70452 10.1195L3.5 10.0762V10.1803V10.2492Z" fill="white"/>
<path d="M7.78125 3.60492L7.88942 3.65738L7.99706 3.5L7.91126 3.5417L7.78125 3.60492Z" fill="white"/>
<path d="M7.26172 3.8562L7.62888 4.0342L7.69387 3.94004L7.75889 3.84543L7.59423 3.76562L7.50152 3.84633L7.3912 3.79297L7.26172 3.8562Z" fill="white"/>
<path d="M6.74219 4.10867L7.36831 4.41311L7.49832 4.22435L7.22124 4.08984L7.128 4.17055L6.87169 4.0459L6.74219 4.10867Z" fill="white"/>
<path d="M6.22266 4.36062L7.10881 4.79106L7.17329 4.6969L7.23829 4.6023L6.84878 4.41263L6.75552 4.49379L6.35214 4.29785L6.22266 4.36062Z" fill="white"/>
<path d="M5.70508 4.6116L6.85022 5.16803L6.9797 4.97926L6.47721 4.7349L6.38448 4.81561L5.83456 4.54883L5.70508 4.6116Z" fill="white"/>
<path d="M5.13672 4.94308L6.63428 5.57707L6.77289 5.4017L6.11671 5.12386L6.01731 5.19884L5.27534 4.88477L5.13672 4.94308Z" fill="white"/>
<path d="M4.72852 5.11997L6.24607 5.923L6.36469 5.73505L5.70068 5.38408L5.61562 5.46425L4.84663 5.05762L4.72852 5.11997Z" fill="white"/>
<path d="M4.11328 5.46967L6.02951 6.44276L6.1585 6.24572L5.32088 5.82081L5.22852 5.90485L4.2428 5.4043L4.11328 5.46967Z" fill="white"/>
<path d="M3.70312 5.64389L5.82687 6.78771L5.95286 6.58362L5.02528 6.084L4.93454 6.17106L3.82912 5.57617L3.70312 5.64389Z" fill="white"/>
<path d="M3.5 6.05974L5.61622 7.13537L5.74974 6.93127L4.65096 6.37266L4.55482 6.45972L3.5 5.92383V6.05974Z" fill="white"/>
<path d="M3.5 6.57313L5.21625 7.48084L5.34069 7.2838L4.212 6.68752L4.12325 6.77156L3.5 6.44238V6.57313Z" fill="white"/>
<path d="M3.5 7.11103L5.00882 7.9994L5.13617 7.77396L3.86581 7.02663L3.77409 7.12279L3.5 6.96094V7.11103Z" fill="white"/>
<path d="M3.5 7.73065L4.79967 8.34585L4.93165 8.158L3.50054 7.48047V7.60557L3.5 7.73065Z" fill="white"/>
<path d="M3.5 8.2341L4.58837 8.69231L4.72713 8.51694L3.5 8V8.11704V8.2341Z" fill="white"/>
<path d="M3.5 8.80127L4.19805 9.21184L4.25807 9.10657L4.31809 9.00079L3.5 8.51953V8.66041V8.80127Z" fill="white"/>
<path d="M3.5 9.30434L3.98678 9.55829L4.11356 9.35957L3.5 9.03906V9.17171V9.30434Z" fill="white"/>
<path d="M3.5 9.79515L3.76478 9.90377L3.83721 9.81502L3.90904 9.72584L3.5 9.55762V9.67639V9.79515Z" fill="white"/>
</svg>
