<svg width="168" height="51" viewBox="0 0 168 51" fill="none" xmlns="http://www.w3.org/2000/svg">
<path d="M43.9599 37.8458L43.4336 36.9391L43.9599 36.636V37.3639V37.8458Z" fill="white"/>
<path d="M23.0357 0.606196L22.5094 0.909295L21.9805 0L22.3999 0.240924L23.0357 0.606196Z" fill="white"/>
<path d="M25.5679 2.06212L23.7728 3.09058L23.4575 2.54656L23.1396 1.99994L23.9421 1.53882L24.3981 2.00512L24.9348 1.69684L25.5679 2.06212Z" fill="white"/>
<path d="M28.1073 3.51551L25.0433 5.27452L24.4102 4.18388L25.7624 3.40671L26.2183 3.87301L27.4715 3.15283L28.1073 3.51551Z" fill="white"/>
<path d="M30.6437 4.97132L26.3135 7.45828L25.9956 6.91426L25.6777 6.36765L27.5849 5.27183L28.0383 5.74073L30.0106 4.60864L30.6437 4.97132Z" fill="white"/>
<path d="M33.1801 6.42713L27.581 9.64205L26.9453 8.55141L29.4022 7.13955L29.8582 7.60585L32.5444 6.06445L33.1801 6.42713Z" fill="white"/>
<path d="M35.7178 7.88319L28.8499 11.8261L28.2168 10.7354L31.2235 9.0075L31.6794 9.47381L35.0847 7.52051L35.7178 7.88319Z" fill="white"/>
<path d="M38.2503 9.339L30.1136 14.0098L29.4805 12.9166L33.0395 10.8752L33.4928 11.3415L37.6146 8.97632L38.2503 9.339Z" fill="white"/>
<path d="M40.7907 10.7951L31.3877 16.1938L30.752 15.1006L34.8633 12.7432L35.3193 13.2095L40.1576 10.4324L40.7907 10.7951Z" fill="white"/>
<path d="M43.3271 12.2509L32.6553 18.3776L32.0195 17.2844L36.6832 14.6083L37.1366 15.0746L42.6914 11.8882L43.3271 12.2509Z" fill="white"/>
<path d="M43.958 14.8L33.9193 20.5614L33.2861 19.4682L38.4996 16.4761L38.9529 16.9424L43.958 14.072V14.8Z" fill="white"/>
<path d="M43.9606 17.7093L35.1907 22.7453L34.5576 21.6521L40.3208 18.3439L40.7768 18.8102L43.9606 16.9839V17.7093Z" fill="white"/>
<path d="M43.962 20.621L36.4609 24.9292L35.8252 23.8359L42.1408 20.2117L42.5967 20.678L43.962 19.8931V20.621Z" fill="white"/>
<path d="M43.9568 23.5328L37.7246 27.113L37.0889 26.0198L43.9568 22.0769V22.8049V23.5328Z" fill="white"/>
<path d="M43.9594 26.4447L38.9935 29.2943L38.3604 28.2037L43.9594 24.9888V25.7167V26.4447Z" fill="white"/>
<path d="M43.9611 29.3565L40.264 31.4782L39.9461 30.9342L39.6309 30.3876L43.9611 27.9006V28.6286V29.3565Z" fill="white"/>
<path d="M43.9595 32.2684L41.5312 33.6621L40.8955 32.5715L43.9595 30.8125V31.5405V32.2684Z" fill="white"/>
<path d="M43.9573 35.18L42.7978 35.8458L42.48 35.3018L42.1621 34.7552L43.9573 33.7241V34.4521V35.18Z" fill="white"/>
<path d="M0.00488281 37.8522V37.8496H1.05748V38.4558L0.424357 38.0931L0.00488281 37.8522Z" fill="white"/>
<path d="M42.9062 38.4521V37.8459H43.9588L43.5394 38.0869L42.9062 38.4521Z" fill="white"/>
<path d="M40.3643 39.9081V37.8459H41H41.6331V38.7682L41 38.9262V39.5428L40.3643 39.9081Z" fill="white"/>
<path d="M37.833 41.364V37.8459H39.1018V39.4003L38.4661 39.5609V40.9987L37.833 41.364Z" fill="white"/>
<path d="M35.2949 42.8199V37.8459H35.928H36.5612V40.035L35.928 40.193V42.4546L35.2949 42.8199Z" fill="white"/>
<path d="M32.7627 44.2758V37.8459H34.0315V40.6671L33.3984 40.8251V43.9105L32.7627 44.2758Z" fill="white"/>
<path d="M30.2275 45.7317V37.8459H31.4964V41.3018L30.8607 41.4598V45.369L30.2275 45.7317Z" fill="white"/>
<path d="M27.6934 47.1877V37.8486H28.9596V41.934L28.3265 42.092V46.825L27.6934 47.1877Z" fill="white"/>
<path d="M25.1514 48.6436V37.8486H26.4202V42.5661L25.7871 42.7241V48.2809L25.1514 48.6436Z" fill="white"/>
<path d="M22.6191 50.0995V37.8486H23.8854V43.2008L23.2523 43.3588V49.7368L22.6191 50.0995Z" fill="white"/>
<path d="M20.084 49.3716V37.8486H21.3502V43.8329L20.7171 43.9909V49.7342L20.084 49.3716Z" fill="white"/>
<path d="M17.5459 47.9156V37.8486H18.8147V44.4676L18.179 44.6256V48.2809L17.5459 47.9156Z" fill="white"/>
<path d="M15.0107 46.4597V37.8486H16.277V45.0997L15.6439 45.2577V46.825L15.0107 46.4597Z" fill="white"/>
<path d="M12.4727 45.0038V37.8486H13.7415V45.7318L13.1084 45.3691L12.4727 45.0038Z" fill="white"/>
<path d="M9.9375 43.5505V37.8486H11.2063V44.2785L10.5706 43.9132L9.9375 43.5505Z" fill="white"/>
<path d="M7.40234 42.0946V37.8486H8.03546H8.66858V42.8226L8.03546 42.4573L7.40234 42.0946Z" fill="white"/>
<path d="M4.86719 40.6387V37.8486H6.13603V41.3666L5.50291 41.0014L4.86719 40.6387Z" fill="white"/>
<path d="M2.3291 39.1838V37.8496H2.96222H3.59795V39.9117L2.96222 39.5464L2.3291 39.1838Z" fill="white"/>
<path d="M0 37.8458L0.528902 36.9391L0 36.636V37.3639V37.8458Z" fill="white"/>
<path d="M20.9258 0.606196L21.4547 0.909295L21.981 0L21.5615 0.240924L20.9258 0.606196Z" fill="white"/>
<path d="M18.3906 2.06212L20.1858 3.09058L20.5036 2.54656L20.8215 1.99994L20.0164 1.53882L19.5631 2.00512L19.0237 1.69684L18.3906 2.06212Z" fill="white"/>
<path d="M15.8525 3.51551L18.9139 5.27452L19.5496 4.18388L18.1948 3.40671L17.7389 3.87301L16.4857 3.15283L15.8525 3.51551Z" fill="white"/>
<path d="M13.3174 4.97132L17.6502 7.45828L17.9655 6.91426L18.2833 6.36765L16.3788 5.27183L15.9228 5.74073L13.9505 4.60864L13.3174 4.97132Z" fill="white"/>
<path d="M10.7793 6.42713L16.3784 9.64205L17.0115 8.55141L14.5546 7.13955L14.1012 7.60585L11.4124 6.06445L10.7793 6.42713Z" fill="white"/>
<path d="M8.24414 7.88319L15.1121 11.8261L15.7478 10.7354L12.7385 9.0075L12.2826 9.47381L8.87987 7.52051L8.24414 7.88319Z" fill="white"/>
<path d="M5.70508 9.339L13.8392 14.0098L14.475 12.9166L10.9159 10.8752L10.46 11.3415L6.3382 8.97632L5.70508 9.339Z" fill="white"/>
<path d="M3.1709 10.7951L12.5765 16.1938L13.2096 15.1006L9.09825 12.7432L8.64491 13.2095L3.80662 10.4324L3.1709 10.7951Z" fill="white"/>
<path d="M0.635742 12.2509L11.3076 18.3776L11.9407 17.2844L7.27959 14.6083L6.82364 15.0746L1.26886 11.8882L0.635742 12.2509Z" fill="white"/>
<path d="M0.00292969 14.8L10.039 20.5614L10.6722 19.4682L5.4613 16.4761L5.00535 16.9424L0.00292969 14.072V14.8Z" fill="white"/>
<path d="M0.00292969 17.7093L8.7702 22.7453L9.40592 21.6521L3.64011 18.3439L3.18676 18.8102L0.00292969 16.9839V17.7093Z" fill="white"/>
<path d="M0.00292969 20.621L7.50396 24.9292L8.13708 23.8359L1.82152 20.2117L1.36557 20.678L0.00292969 19.8931V20.621Z" fill="white"/>
<path d="M0 23.5328L6.23479 27.113L6.86791 26.0198L0.00260543 22.0769V22.8049L0 23.5328Z" fill="white"/>
<path d="M0 26.4447L4.96595 29.2943L5.59907 28.2037L0 24.9888V25.7167V26.4447Z" fill="white"/>
<path d="M0 29.3565L3.6971 31.4782L4.01497 30.9342L4.33283 30.3876L0 27.9006V28.6286V29.3565Z" fill="white"/>
<path d="M0 32.2684L2.43087 33.6621L3.06399 32.5715L0 30.8125V31.5405V32.2684Z" fill="white"/>
<path d="M0 35.18L1.16202 35.8458L1.47988 35.3018L1.79514 34.7552L0 33.7241V34.4521V35.18Z" fill="white"/>
<path d="M57.6243 9.2666C58.3929 9.2666 59.0885 9.31323 59.7086 9.40649C60.3287 9.49975 60.967 9.69923 61.621 9.99974C62.275 10.3028 62.8221 10.7044 63.2598 11.2069C63.6975 11.7095 64.0597 12.3986 64.3437 13.2691C64.6277 14.1421 64.7684 15.168 64.7684 16.3493C64.7684 17.5306 64.6277 18.5564 64.3437 19.4295C64.0597 20.3025 63.7001 20.989 63.2598 21.4916C62.8221 21.9941 62.275 22.4009 61.621 22.7091C60.967 23.0174 60.3287 23.2195 59.7086 23.3127C59.0885 23.406 58.3929 23.4526 57.6243 23.4526H53.0908V9.2666H57.6243ZM57.6243 22.0459C58.1089 22.0459 58.5414 22.0252 58.9192 21.9864C59.297 21.9449 59.7112 21.8646 60.1646 21.7454C60.6153 21.6237 61.0035 21.4346 61.3292 21.1729C61.6523 20.9113 61.9571 20.5797 62.2411 20.1755C62.5251 19.7714 62.7413 19.2455 62.8898 18.5953C63.0384 17.9451 63.1113 17.1964 63.1113 16.3518C63.1113 15.3467 62.9967 14.4789 62.7674 13.7561C62.5381 13.0307 62.2567 12.4737 61.9284 12.0852C61.5976 11.6966 61.1651 11.3909 60.6335 11.1707C60.0994 10.9505 59.6148 10.8132 59.1771 10.7588C58.7394 10.7044 58.2235 10.6785 57.6295 10.6785H54.7557V22.0459H57.6243Z" fill="white"/>
<path d="M66.2461 18.3233C66.2461 16.7405 66.6942 15.4996 67.5931 14.6007C68.4894 13.7017 69.667 13.251 71.1261 13.251C72.5564 13.251 73.6976 13.681 74.547 14.5385C75.3964 15.396 75.8211 16.5902 75.8211 18.1213V18.7663H67.8667C67.9214 19.8129 68.2262 20.6626 68.7864 21.3129C69.3466 21.9631 70.2063 22.2895 71.3684 22.2895C72.2047 22.2895 72.8926 22.0926 73.4319 21.6963C73.9712 21.2999 74.3281 20.7196 74.5053 19.9554H76.165C76.0555 20.3984 75.8992 20.8129 75.6882 21.2041C75.4797 21.5927 75.1958 21.9812 74.8388 22.3724C74.4819 22.761 74.0025 23.0745 73.4006 23.3076C72.7988 23.5434 72.1213 23.6599 71.3658 23.6599C69.6644 23.6599 68.3878 23.16 67.5306 22.16C66.6734 21.1574 66.2461 19.8803 66.2461 18.3233ZM67.8641 17.5177H74.2005C74.2005 16.6861 73.9295 15.997 73.3902 15.4556C72.8509 14.9115 72.0953 14.6395 71.1235 14.6395C70.1516 14.6395 69.3648 14.9141 68.7655 15.4659C68.1637 16.0151 67.8641 16.699 67.8641 17.5177Z" fill="white"/>
<path d="M87.7795 22.2662H91.3229V23.6547H89.2777C87.5451 23.6547 86.1407 22.2584 86.1407 20.5357V14.8597H83.9131V13.4504H86.1407V10.3728H87.7795V13.453H90.9165V14.8623H87.7795V22.2662Z" fill="white"/>
<path d="M89.0774 39.6853H92.6208V41.0738H90.5755C88.8429 41.0738 87.4386 39.6775 87.4386 37.9547V32.2788H85.2109V30.8695H87.4386V27.7893H89.0774V30.8695H92.2143V32.2788H89.0774V39.6853Z" fill="white"/>
<path d="M92.8438 20.6782C92.8438 18.9606 93.9432 17.9892 96.1422 17.7612L100.149 17.3778C100.056 15.554 99.1098 14.6395 97.3147 14.6395C96.5044 14.6395 95.8348 14.8416 95.3007 15.2431C94.7666 15.6447 94.5008 16.2897 94.5008 17.1757H92.8802C92.8802 16.0877 93.2789 15.1628 94.0735 14.3986C94.8708 13.6344 95.9494 13.251 97.3121 13.251C98.7007 13.251 99.7976 13.6681 100.6 14.4996C101.403 15.3312 101.804 16.4244 101.804 17.7793V22.046H103.281V23.4553H101.499C100.702 23.4553 100.306 23.0667 100.306 22.2869V21.7429L100.569 20.6963H100.084C99.584 22.6677 98.2891 23.6548 96.1969 23.6548C95.6446 23.6548 95.1548 23.5848 94.7301 23.4423C94.3054 23.3024 93.9771 23.1263 93.7478 22.919C93.5186 22.7118 93.3284 22.4631 93.1798 22.1755C93.0313 21.888 92.9375 21.6263 92.8959 21.3906C92.862 21.1574 92.8438 20.9191 92.8438 20.6782ZM94.5034 20.4761C94.5034 21.0409 94.6728 21.4761 95.0089 21.7844C95.345 22.0926 95.8113 22.2481 96.4054 22.2481C97.5257 22.2481 98.4298 21.9061 99.1176 21.2222C99.8054 20.5383 100.149 19.6653 100.149 18.6057L96.4262 18.9891C95.7644 19.0565 95.2798 19.2015 94.9698 19.4217C94.6571 19.6419 94.5034 19.9943 94.5034 20.4761Z" fill="white"/>
<path d="M112.741 21.5925C111.54 20.2169 110.94 18.4709 110.94 16.3492C110.94 14.2301 111.54 12.484 112.741 11.1162C113.942 9.74837 115.568 9.06445 117.618 9.06445C119.426 9.06445 120.901 9.57221 122.04 10.5851C123.181 11.598 123.858 12.984 124.074 14.7404H122.415C122.253 13.3726 121.761 12.3182 120.937 11.5799C120.114 10.8416 119.007 10.4737 117.618 10.4737C115.998 10.4737 114.757 11.01 113.895 12.0825C113.033 13.155 112.6 14.5772 112.6 16.3492C112.6 18.1341 113.033 19.5615 113.895 20.6366C114.757 21.7091 116 22.2453 117.618 22.2453C119.007 22.2453 120.114 21.8723 120.937 21.1288C121.761 20.3853 122.253 19.3283 122.415 17.9579H124.074C123.858 19.7299 123.181 21.121 122.04 22.1339C120.898 23.1469 119.426 23.6546 117.618 23.6546C115.568 23.6546 113.942 22.9681 112.741 21.5925Z" fill="white"/>
<path d="M124.603 23.4552V22.046H127.437V9.89094H125.353V8.46094H125.939C127.672 8.46094 129.076 9.85726 129.076 11.58V22.046H131.89V23.4552H124.603Z" fill="white"/>
<path d="M76.751 23.4552V22.046H79.5857V9.89094H77.5013V8.46094H78.0876C79.8202 8.46094 81.2245 9.85726 81.2245 11.58V22.046H84.0384V23.4552H76.751Z" fill="white"/>
<path d="M132.637 18.4425C132.637 16.9659 133.129 15.7328 134.114 14.7406C135.099 13.7484 136.381 13.251 137.96 13.251C139.525 13.251 140.797 13.7484 141.774 14.7406C142.751 15.7328 143.241 16.9685 143.241 18.4425C143.241 19.9321 142.751 21.173 141.774 22.1652C140.794 23.1574 139.523 23.6548 137.96 23.6548C136.381 23.6548 135.099 23.1574 134.114 22.1652C133.129 21.173 132.637 19.9321 132.637 18.4425ZM134.296 18.4425C134.296 19.5435 134.619 20.4528 135.268 21.1704C135.917 21.888 136.813 22.2481 137.96 22.2481C139.106 22.2481 140 21.8854 140.641 21.16C141.282 20.4347 141.602 19.5306 141.602 18.4425C141.602 17.3545 141.282 16.4529 140.641 15.7353C140 15.0178 139.106 14.6577 137.96 14.6577C136.813 14.6577 135.914 15.0178 135.268 15.7353C134.619 16.4555 134.296 17.3571 134.296 18.4425Z" fill="white"/>
<path d="M149.15 22.2479C150.228 22.2479 151.104 21.8541 151.771 21.0692C152.438 20.2842 152.774 19.2273 152.774 17.8983V13.4529H154.413V23.4551H152.774V21.7246L153.037 20.577H152.571C152.354 21.5174 151.919 22.2635 151.265 22.8204C150.611 23.3774 149.757 23.6546 148.704 23.6546C147.529 23.6546 146.61 23.3126 145.943 22.6287C145.276 21.9448 144.939 20.9241 144.939 19.5692V13.4529H146.599V19.349C146.599 20.3827 146.805 21.1236 147.217 21.5718C147.628 22.0225 148.272 22.2479 149.15 22.2479Z" fill="white"/>
<path d="M167.004 23.4553H165.345V21.9865L165.629 20.8595H165.144C164.915 21.6782 164.453 22.3491 163.758 22.8724C163.062 23.3957 162.169 23.6574 161.077 23.6574C159.646 23.6574 158.49 23.1678 157.606 22.1885C156.723 21.2093 156.28 19.9606 156.28 18.4451C156.28 16.9426 156.723 15.7017 157.606 14.7225C158.49 13.7432 159.646 13.2536 161.077 13.2536C162.171 13.2536 163.065 13.5152 163.758 14.0385C164.453 14.5618 164.915 15.2406 165.144 16.0722H165.629L165.345 14.9245V8.66309H167.004V23.4553ZM165.345 18.4425C165.345 17.1809 164.993 16.2354 164.292 15.6058C163.591 14.9763 162.679 14.6603 161.559 14.6603C160.452 14.6603 159.571 14.9712 158.917 15.5955C158.263 16.2198 157.935 17.168 157.935 18.4425C157.935 19.7171 158.263 20.6704 158.917 21.2999C159.571 21.9295 160.452 22.2455 161.559 22.2455C162.679 22.2455 163.588 21.9295 164.292 21.2999C164.993 20.6704 165.345 19.7171 165.345 18.4425Z" fill="white"/>
<path d="M64.4231 37.2862C64.4231 39.8095 62.5941 41.0685 58.9387 41.0685C56.5782 41.0685 54.9107 40.5944 53.9389 39.6489C52.967 38.7033 52.4824 37.3381 52.4824 35.5531H54.1421C54.1421 37.136 54.5329 38.2163 55.3171 38.794C56.0988 39.3717 57.3077 39.6592 58.9413 39.6592C60.2101 39.6592 61.1637 39.4805 61.8047 39.1256C62.4456 38.7706 62.7661 38.1826 62.7661 37.364C62.7661 37.136 62.74 36.9184 62.6853 36.7085C62.6306 36.5013 62.5394 36.3174 62.4117 36.1542C62.2841 35.9935 62.159 35.8459 62.0365 35.7112C61.9141 35.5765 61.7395 35.4495 61.5102 35.3278C61.281 35.206 61.0856 35.1076 60.924 35.0247C60.7625 34.9444 60.528 34.8537 60.2258 34.7526C59.9209 34.6516 59.6812 34.5791 59.5067 34.5324C59.3321 34.4858 59.0742 34.4159 58.7381 34.32C58.3994 34.2268 58.1518 34.1516 57.9903 34.0998C57.154 33.8459 56.4922 33.6232 56.0076 33.4366C55.523 33.2475 55.0331 32.9962 54.5407 32.6828C54.0483 32.3667 53.6913 31.9885 53.4673 31.5455C53.2458 31.1025 53.1338 30.5792 53.1338 29.9756C53.1338 27.6415 54.8195 26.4731 58.1935 26.4731C59.2044 26.4731 60.0903 26.613 60.8459 26.8954C61.6014 27.1778 62.1877 27.5586 62.6071 28.043C63.024 28.5249 63.3366 29.043 63.5373 29.5922C63.7405 30.1414 63.8421 30.7269 63.8421 31.3434H62.1824C62.1824 30.1906 61.8125 29.3254 61.0699 28.7477C60.3274 28.17 59.3686 27.8824 58.1961 27.8824C55.9294 27.8824 54.796 28.5663 54.796 29.9342C54.796 30.631 55.0696 31.1647 55.6168 31.5351C56.1639 31.9056 57.0914 32.289 58.3994 32.6931C58.5348 32.7346 58.7302 32.7942 58.9856 32.8745C59.4858 33.0221 59.8662 33.1387 60.1294 33.2268C60.3925 33.3149 60.7495 33.4418 61.2028 33.6102C61.6535 33.7786 62.0053 33.9366 62.2554 34.0843C62.5055 34.2319 62.7895 34.4185 63.1048 34.649C63.4226 34.877 63.6623 35.1127 63.8239 35.3537C63.9854 35.5946 64.1287 35.8796 64.2486 36.2086C64.3632 36.5402 64.4231 36.8976 64.4231 37.2862Z" fill="white"/>
<path d="M73.7343 30.8669H75.5347L71.1628 40.7682L71.1602 41.6386C71.1576 43.3587 69.7532 44.7525 68.0232 44.7525H65.879V43.3432H69.5031V40.7682L65.1104 30.8669H66.9315L70.0919 38.6568V39.4211H70.5765V38.6568L73.7343 30.8669Z" fill="white"/>
<path d="M84.5253 38.2734C84.5253 39.105 84.2153 39.7786 83.5952 40.2967C82.9751 40.8122 81.9616 41.0713 80.5598 41.0713C77.4959 41.0713 75.9639 39.776 75.9639 37.188H77.6235C77.6235 38.8796 78.6084 39.7242 80.5781 39.7242C81.3753 39.7242 81.9537 39.618 82.3185 39.4029C82.6833 39.1879 82.8656 38.833 82.8656 38.3356C82.8656 38.1465 82.8448 37.9833 82.8057 37.8434C82.764 37.7035 82.6807 37.5714 82.553 37.4522C82.4253 37.3305 82.3133 37.232 82.2195 37.1491C82.1257 37.0688 81.959 36.9859 81.7245 36.8978C81.4874 36.8098 81.3128 36.7476 81.1982 36.7061C81.0835 36.6647 80.8595 36.5999 80.5312 36.5041C80.2003 36.4108 79.9814 36.3435 79.8746 36.302C79.2936 36.1155 78.8376 35.9523 78.5094 35.8202C78.1785 35.6854 77.832 35.5015 77.4672 35.2658C77.1024 35.03 76.8393 34.7528 76.6778 34.4316C76.5162 34.1104 76.4354 33.7347 76.4354 33.3047C76.4354 32.499 76.7585 31.8592 77.4073 31.3825C78.056 30.9058 78.9523 30.6675 80.0987 30.6675C81.5421 30.6675 82.5843 30.9887 83.2252 31.6338C83.8661 32.2788 84.1866 33.0767 84.1866 34.0275H82.5269C82.5269 32.6855 81.7166 32.0146 80.0987 32.0146C78.7621 32.0146 78.0951 32.4239 78.0951 33.2425C78.0951 33.6985 78.2566 34.0404 78.5797 34.2684C78.9028 34.4964 79.5099 34.7502 80.4009 35.0326C80.5234 35.0741 80.7422 35.144 81.0575 35.245C81.3753 35.3461 81.5994 35.4186 81.7349 35.4652C81.8704 35.5119 82.071 35.587 82.342 35.6854C82.6129 35.7865 82.8109 35.8746 82.9386 35.9471C83.0663 36.0222 83.2356 36.1181 83.444 36.2398C83.6525 36.3616 83.8088 36.4885 83.9104 36.6232C84.012 36.7579 84.1162 36.9082 84.2231 37.0766C84.3299 37.245 84.4081 37.4289 84.4549 37.631C84.5018 37.8304 84.5253 38.0455 84.5253 38.2734Z" fill="white"/>
<path d="M93.5703 35.7372C93.5703 34.1543 94.0185 32.9134 94.9173 32.0145C95.8136 31.1156 96.9912 30.6648 98.4503 30.6648C99.8807 30.6648 101.022 31.0948 101.871 31.9523C102.721 32.8098 103.145 34.0041 103.145 35.5351V36.1801H95.1909C95.2456 37.2267 95.5504 38.0765 96.1106 38.7267C96.6708 39.3769 97.5306 39.7033 98.6926 39.7033C99.5289 39.7033 100.217 39.5065 100.756 39.1101C101.295 38.7137 101.652 38.1334 101.83 37.3692H103.489C103.38 37.8122 103.223 38.2267 103.012 38.6179C102.804 39.0065 102.52 39.3951 102.163 39.7862C101.806 40.1748 101.327 40.4883 100.725 40.7214C100.123 40.9572 99.4456 41.0738 98.69 41.0738C96.9886 41.0738 95.712 40.5738 94.8548 39.5738C94.0002 38.5713 93.5703 37.2941 93.5703 35.7372ZM95.1909 34.9315H101.527C101.527 34.0999 101.256 33.4108 100.717 32.8694C100.178 32.3254 99.4221 32.0533 98.4503 32.0533C97.4785 32.0533 96.6916 32.3279 96.0924 32.8797C95.4905 33.4315 95.1909 34.1154 95.1909 34.9315Z" fill="white"/>
<path d="M117.757 30.6647C118.768 30.6647 119.541 31.0248 120.075 31.7424C120.61 32.46 120.875 33.4029 120.875 34.5713V40.8716H119.216V34.9547C119.216 33.934 119.067 33.2009 118.77 32.7501C118.473 32.3019 117.934 32.0766 117.152 32.0766C116.167 32.0766 115.388 32.4755 114.815 33.2734C114.242 34.0713 113.955 35.1361 113.955 36.4624V40.869H112.296V34.9521C112.296 33.9314 112.147 33.1983 111.85 32.7475C111.553 32.2994 111.014 32.074 110.23 32.074C109.245 32.074 108.466 32.4729 107.892 33.2708C107.319 34.0687 107.033 35.1335 107.033 36.4598V40.8664H105.373V30.8642H107.033V32.574L106.77 33.7009H107.236C107.694 31.675 108.896 30.6621 110.839 30.6621C111.717 30.6621 112.408 30.9341 112.913 31.4781C113.419 32.0222 113.734 32.7631 113.854 33.7009H114.159C114.612 31.6802 115.813 30.6647 117.757 30.6647Z" fill="white"/>
<path d="M131.078 38.2734C131.078 39.105 130.768 39.7786 130.148 40.2967C129.528 40.8122 128.514 41.0713 127.113 41.0713C124.049 41.0713 122.517 39.776 122.517 37.188H124.176C124.176 38.8796 125.161 39.7242 127.131 39.7242C127.928 39.7242 128.506 39.618 128.871 39.4029C129.236 39.1879 129.418 38.833 129.418 38.3356C129.418 38.1465 129.398 37.9833 129.358 37.8434C129.317 37.7035 129.233 37.5714 129.106 37.4522C128.978 37.3305 128.866 37.232 128.772 37.1491C128.678 37.0688 128.512 36.9859 128.277 36.8978C128.04 36.8098 127.866 36.7476 127.751 36.7061C127.636 36.6647 127.412 36.5999 127.084 36.5041C126.753 36.4108 126.534 36.3435 126.427 36.302C125.846 36.1155 125.39 35.9523 125.062 35.8202C124.731 35.6854 124.385 35.5015 124.02 35.2658C123.655 35.03 123.392 34.7528 123.23 34.4316C123.069 34.1104 122.988 33.7347 122.988 33.3047C122.988 32.499 123.311 31.8592 123.96 31.3825C124.609 30.9058 125.505 30.6675 126.651 30.6675C128.095 30.6675 129.137 30.9887 129.778 31.6338C130.419 32.2788 130.739 33.0767 130.739 34.0275H129.08C129.08 32.6855 128.269 32.0146 126.651 32.0146C125.315 32.0146 124.648 32.4239 124.648 33.2425C124.648 33.6985 124.809 34.0404 125.132 34.2684C125.456 34.4964 126.063 34.7502 126.954 35.0326C127.076 35.0741 127.295 35.144 127.61 35.245C127.928 35.3461 128.152 35.4186 128.288 35.4652C128.423 35.5119 128.624 35.587 128.895 35.6854C129.166 35.7865 129.364 35.8746 129.491 35.9471C129.619 36.0222 129.788 36.1181 129.997 36.2398C130.205 36.3616 130.362 36.4885 130.463 36.6232C130.565 36.7579 130.669 36.9082 130.776 37.0766C130.883 37.245 130.961 37.4289 131.008 37.631C131.055 37.8304 131.078 38.0455 131.078 38.2734Z" fill="white"/>
<path d="M133.553 30.8333V31.1571H132.873V32.8669H132.497V31.1571H131.81V30.8333H133.553Z" fill="white"/>
<path d="M133.734 32.867V30.8359H134.474L134.886 32.7737H134.982L135.394 30.8359H136.134V32.867H135.759V31.1727L135.829 30.9318H135.73L135.3 32.8695H134.571L134.138 30.9318H134.042L134.11 31.1727V32.867H133.734Z" fill="white"/>
</svg>
